<svg width="1280" height="720" viewBox="0 0 1280 720" fill="none" xmlns="http://www.w3.org/2000/svg">
  <defs>
    <linearGradient id="bg" x1="100" y1="80" x2="1180" y2="640" gradientUnits="userSpaceOnUse">
      <stop stop-color="#0B1020"/>
      <stop offset="1" stop-color="#0E172A"/>
    </linearGradient>
    <linearGradient id="panel" x1="120" y1="120" x2="480" y2="580" gradientUnits="userSpaceOnUse">
      <stop stop-color="#0F2444"/>
      <stop offset="1" stop-color="#0B1A33"/>
    </linearGradient>
  </defs>

  <rect width="1280" height="720" fill="#020617"/>
  <rect x="60" y="60" width="1160" height="600" rx="30" fill="url(#bg)" stroke="#1E293B" stroke-width="4"/>

  <rect x="124" y="124" width="378" height="472" rx="24" fill="url(#panel)" stroke="#1D4ED8" stroke-opacity="0.45" stroke-width="2"/>
  <rect x="160" y="162" width="306" height="38" rx="10" fill="#1D4ED8"/>
  <text x="313" y="187" fill="#DBEAFE" font-size="20" text-anchor="middle" font-family="Consolas, Menlo, monospace">azure-pipeline.yml</text>
  <rect x="160" y="232" width="250" height="16" rx="8" fill="#60A5FA"/>
  <rect x="160" y="262" width="214" height="16" rx="8" fill="#3B82F6"/>
  <rect x="160" y="292" width="272" height="16" rx="8" fill="#2563EB"/>

  <rect x="160" y="346" width="306" height="80" rx="14" fill="#0A1A34" stroke="#1E40AF"/>
  <circle cx="198" cy="386" r="12" fill="#34D399"/>
  <rect x="222" y="376" width="216" height="20" rx="8" fill="#1D4ED8"/>

  <rect x="160" y="446" width="306" height="80" rx="14" fill="#0A1A34" stroke="#1E40AF"/>
  <circle cx="198" cy="486" r="12" fill="#38BDF8"/>
  <rect x="222" y="476" width="216" height="20" rx="8" fill="#1D4ED8"/>

  <rect x="584" y="130" width="576" height="136" rx="20" fill="#0B1220" stroke="#334155"/>
  <rect x="620" y="174" width="128" height="48" rx="12" fill="#1E40AF"/>
  <rect x="806" y="174" width="128" height="48" rx="12" fill="#1E40AF"/>
  <rect x="992" y="174" width="128" height="48" rx="12" fill="#1E40AF"/>
  <path d="M748 198H806" stroke="#60A5FA" stroke-width="10" stroke-linecap="round"/>
  <path d="M934 198H992" stroke="#60A5FA" stroke-width="10" stroke-linecap="round"/>
  <text x="684" y="204" fill="#DBEAFE" font-size="16" text-anchor="middle" font-family="Segoe UI, Arial, sans-serif">Build</text>
  <text x="870" y="204" fill="#DBEAFE" font-size="16" text-anchor="middle" font-family="Segoe UI, Arial, sans-serif">Test</text>
  <text x="1056" y="204" fill="#DBEAFE" font-size="16" text-anchor="middle" font-family="Segoe UI, Arial, sans-serif">Deploy</text>

  <rect x="584" y="300" width="352" height="300" rx="20" fill="#0B1220" stroke="#334155"/>
  <text x="620" y="346" fill="#BFDBFE" font-size="20" font-family="Segoe UI, Arial, sans-serif">Template Repository</text>
  <rect x="620" y="374" width="280" height="52" rx="12" fill="#0E1F3D" stroke="#1E40AF"/>
  <rect x="620" y="444" width="280" height="52" rx="12" fill="#0E1F3D" stroke="#1E40AF"/>
  <rect x="620" y="514" width="280" height="52" rx="12" fill="#0E1F3D" stroke="#1E40AF"/>
  <text x="760" y="406" fill="#DBEAFE" font-size="15" text-anchor="middle" font-family="Consolas, Menlo, monospace">build-template.yml</text>
  <text x="760" y="476" fill="#DBEAFE" font-size="15" text-anchor="middle" font-family="Consolas, Menlo, monospace">test-template.yml</text>
  <text x="760" y="546" fill="#DBEAFE" font-size="15" text-anchor="middle" font-family="Consolas, Menlo, monospace">deploy-template.yml</text>

  <rect x="972" y="300" width="188" height="300" rx="20" fill="#0B1220" stroke="#334155"/>
  <text x="1065" y="346" fill="#BFDBFE" font-size="20" text-anchor="middle" font-family="Segoe UI, Arial, sans-serif">Versions</text>
  <rect x="1008" y="378" width="114" height="46" rx="12" fill="#1D4ED8"/>
  <rect x="1008" y="444" width="114" height="46" rx="12" fill="#2563EB"/>
  <rect x="1008" y="510" width="114" height="46" rx="12" fill="#3B82F6"/>
  <text x="1065" y="406" fill="#DBEAFE" font-size="17" text-anchor="middle" font-family="Consolas, Menlo, monospace">v1.4</text>
  <text x="1065" y="472" fill="#DBEAFE" font-size="17" text-anchor="middle" font-family="Consolas, Menlo, monospace">v1.5</text>
  <text x="1065" y="538" fill="#DBEAFE" font-size="17" text-anchor="middle" font-family="Consolas, Menlo, monospace">v2.0</text>

  <path d="M510 386C542 386 556 386 572 386" stroke="#38BDF8" stroke-width="10" stroke-linecap="round" stroke-dasharray="10 12"/>
  <path d="M510 486C542 486 556 486 572 486" stroke="#38BDF8" stroke-width="10" stroke-linecap="round" stroke-dasharray="10 12"/>
  <path d="M948 486C954 486 958 486 964 486" stroke="#60A5FA" stroke-width="10" stroke-linecap="round" stroke-dasharray="10 12"/>
</svg>