<svg width="1280" height="720" viewBox="0 0 1280 720" fill="none" xmlns="http://www.w3.org/2000/svg">
  <defs>
    <linearGradient id="bg" x1="0" y1="0" x2="1280" y2="720" gradientUnits="userSpaceOnUse">
      <stop offset="0" stop-color="#0D1F12"/>
      <stop offset="1" stop-color="#152B1A"/>
    </linearGradient>
  </defs>

  <rect width="1280" height="720" fill="url(#bg)"/>

  <g opacity="0.12" stroke="#4CAF72" stroke-width="1">
    <path d="M0 120H1280"/><path d="M0 240H1280"/><path d="M0 360H1280"/>
    <path d="M0 480H1280"/><path d="M0 600H1280"/>
    <path d="M160 0V720"/><path d="M320 0V720"/><path d="M480 0V720"/>
    <path d="M640 0V720"/><path d="M800 0V720"/><path d="M960 0V720"/>
    <path d="M1120 0V720"/>
  </g>

  <!-- Dashboard panel -->
  <rect x="220" y="110" width="840" height="460" rx="16" fill="#1A2F1F" stroke="#2E5235" stroke-width="2"/>

  <!-- Top bar -->
  <rect x="220" y="110" width="840" height="48" rx="16" fill="#1E3824"/>
  <rect x="220" y="134" width="840" height="24" fill="#1E3824"/>
  <circle cx="252" cy="134" r="8" fill="#3A6645"/>
  <circle cx="278" cy="134" r="8" fill="#3A6645"/>
  <circle cx="304" cy="134" r="8" fill="#3A6645"/>
  <rect x="380" y="126" width="160" height="16" rx="4" fill="#2E5235"/>

  <!-- Stat cards row -->
  <rect x="248" y="186" width="172" height="80" rx="10" fill="#1E3824" stroke="#2E5235" stroke-width="1.5"/>
  <rect x="248" y="186" width="172" height="22" rx="10" fill="#243D29"/>
  <rect x="248" y="196" width="172" height="12" fill="#243D29"/>
  <rect x="262" y="222" width="80" height="16" rx="3" fill="#3A8C52"/>
  <rect x="262" y="244" width="50" height="10" rx="3" fill="#2E5235"/>

  <rect x="438" y="186" width="172" height="80" rx="10" fill="#1E3824" stroke="#2E5235" stroke-width="1.5"/>
  <rect x="438" y="186" width="172" height="22" rx="10" fill="#243D29"/>
  <rect x="438" y="196" width="172" height="12" fill="#243D29"/>
  <rect x="452" y="222" width="64" height="16" rx="3" fill="#3A8C52"/>
  <rect x="452" y="244" width="80" height="10" rx="3" fill="#2E5235"/>

  <rect x="628" y="186" width="172" height="80" rx="10" fill="#1E3824" stroke="#2E5235" stroke-width="1.5"/>
  <rect x="628" y="186" width="172" height="22" rx="10" fill="#243D29"/>
  <rect x="628" y="196" width="172" height="12" fill="#243D29"/>
  <rect x="642" y="222" width="96" height="16" rx="3" fill="#3A8C52"/>
  <rect x="642" y="244" width="60" height="10" rx="3" fill="#2E5235"/>

  <rect x="818" y="186" width="172" height="80" rx="10" fill="#1E3824" stroke="#2E5235" stroke-width="1.5"/>
  <rect x="818" y="186" width="172" height="22" rx="10" fill="#243D29"/>
  <rect x="818" y="196" width="172" height="12" fill="#243D29"/>
  <rect x="832" y="222" width="72" height="16" rx="3" fill="#3A8C52"/>
  <rect x="832" y="244" width="90" height="10" rx="3" fill="#2E5235"/>

  <!-- Chart panel -->
  <rect x="248" y="290" width="462" height="252" rx="10" fill="#1A2B1F" stroke="#2E5235" stroke-width="1.5"/>
  <rect x="262" y="306" width="120" height="12" rx="3" fill="#2E5235"/>
  <polyline points="270,510 320,472 370,488 420,440 470,420 520,436 570,398 620,410 670,380 690,392" stroke="#3A8C52" stroke-width="2.5" fill="none" stroke-linejoin="round"/>
  <polyline points="270,510 320,472 370,488 420,440 470,420 520,436 570,398 620,410 670,380 690,392" stroke="#3A8C52" stroke-opacity="0.15" stroke-width="1" fill="#3A8C52" fill-opacity="0.07"/>

  <!-- List panel -->
  <rect x="728" y="290" width="262" height="252" rx="10" fill="#1A2B1F" stroke="#2E5235" stroke-width="1.5"/>
  <rect x="744" y="306" width="90" height="12" rx="3" fill="#2E5235"/>
  <rect x="744" y="328" width="230" height="28" rx="6" fill="#1E3824"/>
  <rect x="752" y="336" width="12" height="12" rx="3" fill="#3A8C52"/>
  <rect x="772" y="338" width="100" height="8" rx="2" fill="#2E5235"/>
  <rect x="744" y="364" width="230" height="28" rx="6" fill="#1E3824"/>
  <rect x="752" y="372" width="12" height="12" rx="3" fill="#3A8C52"/>
  <rect x="772" y="374" width="80" height="8" rx="2" fill="#2E5235"/>
  <rect x="744" y="400" width="230" height="28" rx="6" fill="#1E3824"/>
  <rect x="752" y="408" width="12" height="12" rx="3" fill="#3A8C52"/>
  <rect x="772" y="410" width="120" height="8" rx="2" fill="#2E5235"/>
  <rect x="744" y="436" width="230" height="28" rx="6" fill="#1E3824"/>
  <rect x="752" y="444" width="12" height="12" rx="3" fill="#3A8C52"/>
  <rect x="772" y="446" width="90" height="8" rx="2" fill="#2E5235"/>
  <rect x="744" y="472" width="230" height="28" rx="6" fill="#1E3824"/>
  <rect x="752" y="480" width="12" height="12" rx="3" fill="#3A8C52"/>
  <rect x="772" y="482" width="110" height="8" rx="2" fill="#2E5235"/>

  <!-- Footer band -->
  <rect x="0" y="642" width="1280" height="78" fill="#091409"/>
  <path d="M0 642H1280" stroke="#1E3A24" stroke-opacity="0.85"/>

  <g transform="translate(72 614)">
    <path d="M0 10H84" stroke="#4CAF72" stroke-width="2" stroke-linecap="round"/>
    <text x="98" y="14" fill="#4CAF72" font-family="'Segoe UI', Arial, sans-serif" font-size="14" letter-spacing="1.9">PROJECT</text>
  </g>
  <text x="72" y="686" fill="#7DC495" font-family="'Segoe UI', Arial, sans-serif" font-size="34" letter-spacing="1.2">Fitness Business Management Platform</text>
</svg>
