<svg width="1280" height="720" viewBox="0 0 1280 720" fill="none" xmlns="http://www.w3.org/2000/svg">
  <defs>
    <radialGradient id="gridSoftener" cx="0" cy="0" r="1" gradientUnits="userSpaceOnUse" gradientTransform="translate(690 318) rotate(90) scale(300)">
      <stop offset="0" stop-color="#0B2A44" stop-opacity="0.82"/>
      <stop offset="1" stop-color="#0B2A44" stop-opacity="0"/>
    </radialGradient>
    <linearGradient id="vignette" x1="0" y1="0" x2="1280" y2="720" gradientUnits="userSpaceOnUse">
      <stop offset="0" stop-color="#062038" stop-opacity="0.42"/>
      <stop offset="1" stop-color="#0A1F33" stop-opacity="0.22"/>
    </linearGradient>
  </defs>

  <rect width="1280" height="720" fill="#0B2A44"/>
  <rect width="1280" height="720" fill="url(#vignette)"/>

  <g opacity="0.14" stroke="#7DA6C9" stroke-width="1">
    <path d="M0 120H1280"/>
    <path d="M0 240H1280"/>
    <path d="M0 360H1280"/>
    <path d="M0 480H1280"/>
    <path d="M0 600H1280"/>
    <path d="M160 0V720"/>
    <path d="M320 0V720"/>
    <path d="M480 0V720"/>
    <path d="M640 0V720"/>
    <path d="M800 0V720"/>
    <path d="M960 0V720"/>
    <path d="M1120 0V720"/>
  </g>
  <rect width="1280" height="720" fill="url(#gridSoftener)"/>

  <g transform="translate(690 318)">
    <circle r="190" fill="#BCC9D7" stroke="#9FB1C3" stroke-width="3"/>

    <g fill="#BCC9D7">
      <path d="M0 -246L24 -192L-24 -192Z"/>
      <path d="M0 -246L24 -192L-24 -192Z" transform="rotate(45)"/>
      <path d="M0 -246L24 -192L-24 -192Z" transform="rotate(90)"/>
      <path d="M0 -246L24 -192L-24 -192Z" transform="rotate(135)"/>
      <path d="M0 -246L24 -192L-24 -192Z" transform="rotate(180)"/>
      <path d="M0 -246L24 -192L-24 -192Z" transform="rotate(225)"/>
      <path d="M0 -246L24 -192L-24 -192Z" transform="rotate(270)"/>
      <path d="M0 -246L24 -192L-24 -192Z" transform="rotate(315)"/>
    </g>

    <circle r="72" fill="#274C6A" stroke="#8FA9C0" stroke-width="7"/>
    <circle r="18" fill="#CCD9E6"/>
  </g>

  <rect x="0" y="642" width="1280" height="78" fill="#071A2A"/>
  <path d="M0 642H1280" stroke="#173753" stroke-opacity="0.85"/>

  <g transform="translate(72 614)">
    <path d="M0 10H84" stroke="#7F9BB4" stroke-width="2" stroke-linecap="round"/>
    <text x="98" y="14" fill="#8EA8BF" font-family="'Segoe UI', Arial, sans-serif" font-size="14" letter-spacing="1.9">PROJECT</text>
  </g>
  <text x="72" y="686" fill="#A2B7CC" font-family="'Segoe UI', Arial, sans-serif" font-size="40" letter-spacing="1.4">INDUSTRIAL SAW CONTROL PLATFORM</text>
</svg>
