<svg width="1280" height="720" viewBox="0 0 1280 720" fill="none" xmlns="http://www.w3.org/2000/svg">
  <defs>
    <linearGradient id="canvas" x1="80" y1="80" x2="1200" y2="640" gradientUnits="userSpaceOnUse">
      <stop stop-color="#0B1220"/>
      <stop offset="1" stop-color="#101A2F"/>
    </linearGradient>
    <linearGradient id="legacyPanel" x1="120" y1="140" x2="520" y2="580" gradientUnits="userSpaceOnUse">
      <stop stop-color="#1F2937"/>
      <stop offset="1" stop-color="#111827"/>
    </linearGradient>
    <linearGradient id="modernPanel" x1="760" y1="140" x2="1160" y2="580" gradientUnits="userSpaceOnUse">
      <stop stop-color="#0C4A6E"/>
      <stop offset="1" stop-color="#0F2F4A"/>
    </linearGradient>
  </defs>

  <rect width="1280" height="720" fill="#020617"/>
  <rect x="56" y="56" width="1168" height="608" rx="32" fill="url(#canvas)" stroke="#22324A" stroke-width="4"/>

  <rect x="112" y="124" width="420" height="472" rx="28" fill="url(#legacyPanel)" stroke="#3C4A60" stroke-width="2"/>
  <text x="152" y="176" fill="#CBD5E1" font-size="28" font-family="Segoe UI, Arial, sans-serif">Before Modernization</text>
  <rect x="152" y="204" width="320" height="22" rx="10" fill="#475569"/>
  <rect x="152" y="242" width="224" height="16" rx="8" fill="#64748B"/>
  <rect x="152" y="270" width="268" height="16" rx="8" fill="#334155"/>

  <rect x="152" y="314" width="148" height="92" rx="14" fill="#1E293B" stroke="#34435A"/>
  <rect x="324" y="314" width="148" height="92" rx="14" fill="#1E293B" stroke="#34435A"/>

  <rect x="152" y="430" width="320" height="140" rx="16" fill="#0A1428" stroke="#2A3D5C"/>
  <rect x="176" y="448" width="170" height="30" rx="10" fill="#7C2D12"/>
  <rect x="176" y="488" width="170" height="30" rx="10" fill="#9A3412"/>
  <rect x="176" y="528" width="170" height="30" rx="10" fill="#B45309"/>
  <text x="261" y="469" fill="#FED7AA" font-size="13" text-anchor="middle" font-family="Segoe UI, Arial, sans-serif">.NET Framework 4.6</text>
  <text x="261" y="509" fill="#FFEDD5" font-size="15" text-anchor="middle" font-family="Segoe UI, Arial, sans-serif">C# 7.x</text>
  <text x="261" y="549" fill="#FFEDD5" font-size="15" text-anchor="middle" font-family="Segoe UI, Arial, sans-serif">Legacy Crypto</text>

  <rect x="376" y="448" width="72" height="96" rx="14" fill="#1A2438" stroke="#7C2D12"/>
  <path d="M412 480L434 520H390L412 480Z" fill="#9A3412" stroke="#FDBA74" stroke-width="3" stroke-linejoin="round"/>
  <path d="M412 495V506" stroke="#FED7AA" stroke-width="4" stroke-linecap="round"/>
  <circle cx="412" cy="513" r="2.8" fill="#FED7AA"/>

  <rect x="748" y="124" width="420" height="472" rx="28" fill="url(#modernPanel)" stroke="#0EA5E9" stroke-opacity="0.45" stroke-width="2"/>
  <text x="788" y="176" fill="#DBEAFE" font-size="28" font-family="Segoe UI, Arial, sans-serif">After Modernization</text>
  <rect x="788" y="204" width="320" height="22" rx="10" fill="#1D4ED8"/>
  <rect x="788" y="242" width="190" height="16" rx="8" fill="#60A5FA"/>
  <rect x="788" y="270" width="252" height="16" rx="8" fill="#1E40AF"/>

  <rect x="788" y="314" width="320" height="92" rx="14" fill="#0B2540" stroke="#1D4ED8"/>
  <path d="M820 358L852 388L904 336" stroke="#38BDF8" stroke-width="14" stroke-linecap="round" stroke-linejoin="round"/>
  <path d="M948 358H1068" stroke="#60A5FA" stroke-width="14" stroke-linecap="round"/>

  <rect x="788" y="430" width="320" height="140" rx="16" fill="#08243D" stroke="#1D4ED8"/>
  <rect x="812" y="448" width="170" height="30" rx="10" fill="#1E40AF"/>
  <rect x="812" y="488" width="170" height="30" rx="10" fill="#2563EB"/>
  <rect x="812" y="528" width="170" height="30" rx="10" fill="#3B82F6"/>
  <text x="897" y="469" fill="#DBEAFE" font-size="13" text-anchor="middle" font-family="Segoe UI, Arial, sans-serif">.NET 8 (Core)</text>
  <text x="897" y="509" fill="#DBEAFE" font-size="15" text-anchor="middle" font-family="Segoe UI, Arial, sans-serif">C# 12</text>
  <text x="897" y="549" fill="#DBEAFE" font-size="15" text-anchor="middle" font-family="Segoe UI, Arial, sans-serif">Hardened Security</text>

  <rect x="1006" y="450" width="84" height="96" rx="14" fill="#0A1E33" stroke="#1D4ED8"/>
  <path d="M1048 472L1068 480V500C1068 514 1058 523 1048 526C1038 523 1028 514 1028 500V480L1048 472Z" fill="#1E3A8A" stroke="#93C5FD" stroke-width="3" stroke-linejoin="round"/>
  <path d="M1039 500L1046 507L1058 494" stroke="#93C5FD" stroke-width="4" stroke-linecap="round" stroke-linejoin="round"/>

  <path d="M590 358H660" stroke="#38BDF8" stroke-width="14" stroke-linecap="round"/>
  <path d="M646 328L690 358L646 388" fill="#38BDF8"/>
</svg>
